<svg xmlns="http://www.w3.org/2000/svg" width="1194.465" height="245.75" viewBox="0 0 1194.465 245.75">
  <defs>
    <style>
      .cls-1 {
        fill-rule: evenodd;
      }
    </style>
  </defs>
  <path id="logo.svg" class="cls-1" d="M386.375,733.477V629.227h29.25v-16.75h-29.25v-6.5c0-18.5,4.75-35,23.5-35a32.853,32.853,0,0,1,14,2.75l3-17a51.015,51.015,0,0,0-18.75-3.5c-10.25,0-21.25,3.25-29.5,11.25-10.25,9.75-14,25.25-14,42.25v5.75h-17v16.75h17v104.25h21.75Zm136,0c-1.5-8.25-2-18.5-2-29v-45.25c0-24.25-9-49.5-46-49.5-15.25,0-29.75,4.25-39.75,10.75l5,14.5a60.287,60.287,0,0,1,31.5-9c24.75,0,27.5,18,27.5,28v2.5c-46.75-.25-72.75,15.75-72.75,45,0,17.5,12.5,34.75,37,34.75,17.25,0,30.25-8.5,37-18h0.75l1.75,15.25h20Zm-23.25-40.75a22.962,22.962,0,0,1-1.25,7c-3.5,10.25-13.5,20.25-29.25,20.25-11.25,0-20.75-6.75-20.75-21,0-23.5,27.25-27.75,51.25-27.25v21Zm56.75,40.75h22v-72.75a31.633,31.633,0,0,1,1.5-10.25c3.75-12.25,15-22.5,29.5-22.5,20.75,0,28,16.25,28,35.75v69.75h22v-72.25c0-41.5-26-51.5-42.75-51.5-20,0-34,11.25-40,22.75h-0.5l-1.25-20h-19.5c0.75,10,1,20.25,1,32.75v88.25Zm221.25-21a62.5,62.5,0,0,1-27,6c-24,0-42-17.25-42-45.25,0-25.25,15-45.75,42.75-45.75,12,0,20.25,2.75,25.5,5.75l5-17c-6-3-17.5-6.25-30.5-6.25-39.5,0-65,27-65,64.25,0,37,23.75,61.75,60.25,61.75,16.25,0,29-4,34.75-7Zm18-100,44.75,111.5a19.182,19.182,0,0,1,1.5,5.75c0,1.25-.75,3-1.75,5.25a66.7,66.7,0,0,1-18.5,24.5,58.193,58.193,0,0,1-19.25,10.75l5.5,18.5c5.5-1,16.25-4.75,27-14.25,15-13,25.75-34.25,41.5-75.75l33-86.25h-23.25l-24,71c-3,8.75-5.5,18-7.75,25.25h-0.5c-2-7.25-5-16.75-7.75-24.75l-26.5-71.5h-24Zm134.5,121h21.75v-67.5c5,1.25,11,1.5,17.5,1.5,21.25,0,40-6.25,51.5-18.5,8.5-8.75,13-20.75,13-36,0-15-5.5-27.25-14.75-35.25-10-9-25.745-14-47.245-14a252.087,252.087,0,0,0-41.75,3.25v166.5Zm21.75-150.75c3.75-1,11-1.75,20.5-1.75,24,0,39.745,10.75,39.745,33,0,23.25-16,36-42.245,36-7.25,0-13.25-.5-18-1.75v-65.5Zm111.245,150.75h93.75v-18.25h-72V564.977h-21.75v168.5Zm205-53,18,53h23.25l-57.5-168.5h-26.25l-57.25,168.5h22.5l17.5-53h59.75Zm-55.25-17,16.5-48.75c3.25-10.25,6-20.5,8.5-30.5h0.5c2.5,9.75,5,19.75,8.75,30.75l16.5,48.5h-50.75Zm134,70h22v-150h51.5v-18.5H1295.12v18.5h51.25v150Zm179.5-97h-65.5v-53.25h69.25v-18.25h-91v168.5h94.75v-18.25h-73v-60.75h65.5v-18ZM1159.39,788.516h4.3v-14.6a6.559,6.559,0,0,1,5.8-6.551c3.35,0,5.05,2.8,5.05,6.651v14.5h4.3V773.565a7.246,7.246,0,0,1,.35-2.2,5.7,5.7,0,0,1,5.2-4c3.55,0,5.25,2.8,5.25,7.451v13.7h4.3V774.265c0-8.4-4.75-10.5-7.95-10.5a8.259,8.259,0,0,0-5.35,1.7,9.969,9.969,0,0,0-2.7,3.15h-0.1a7.154,7.154,0,0,0-6.85-4.85,8.341,8.341,0,0,0-7.6,4.45h-0.15l-0.2-3.9h-3.85c0.15,2,.2,4.05.2,6.551v17.651Zm59.1,0a34.086,34.086,0,0,1-.4-5.8v-9.05c0-4.851-1.8-9.9-9.2-9.9a15.019,15.019,0,0,0-7.95,2.15l1,2.9a12.057,12.057,0,0,1,6.3-1.8c4.95,0,5.5,3.6,5.5,5.6v0.5c-9.35-.05-14.55,3.15-14.55,9,0,3.5,2.5,6.951,7.4,6.951a9.012,9.012,0,0,0,7.4-3.6h0.15l0.35,3.051h4Zm-4.65-8.151a4.592,4.592,0,0,1-.25,1.4,6.021,6.021,0,0,1-5.85,4.05,3.894,3.894,0,0,1-4.15-4.2c0-4.7,5.45-5.55,10.25-5.45v4.2Zm27.85-27.352v14.451h-0.1c-1.1-1.95-3.6-3.7-7.3-3.7-5.9,0-10.9,4.95-10.85,13,0,7.35,4.5,12.3,10.35,12.3a8.95,8.95,0,0,0,8.25-4.751h0.1l0.2,4.2h3.95c-0.15-1.65-.2-4.1-0.2-6.251V753.013h-4.4Zm0,25.352a7.643,7.643,0,0,1-.2,1.9,6.614,6.614,0,0,1-6.45,5.25c-4.75,0-7.15-4.05-7.15-8.95,0-5.35,2.7-9.351,7.25-9.351a6.471,6.471,0,0,1,6.35,5.1,7.767,7.767,0,0,1,.2,1.85v4.2Zm31.15-1.15a16.6,16.6,0,0,0,.15-2.05c0-4.45-2.1-11.4-10-11.4-7.05,0-11.35,5.75-11.35,13.051s4.45,12.2,11.9,12.2a19.6,19.6,0,0,0,8.05-1.5l-0.75-3.151a15.911,15.911,0,0,1-6.7,1.25c-4.4,0-8.2-2.45-8.3-8.4h17Zm-16.95-3.15c0.35-3.05,2.3-7.151,6.75-7.151,4.95,0,6.15,4.351,6.1,7.151h-12.85Zm30.4-9.751,7.3,24.2h4l3.9-11.5a71.564,71.564,0,0,0,2.2-8h0.1a80.6,80.6,0,0,0,2.15,7.951l3.7,11.551h4l7.8-24.2h-4.35l-3.45,12.151a72.77,72.77,0,0,0-1.85,7.85h-0.15c-0.55-2.45-1.25-5-2.15-7.9l-3.75-12.1h-3.7l-3.95,12.351c-0.8,2.6-1.6,5.2-2.15,7.65h-0.15c-0.45-2.5-1.1-5-1.8-7.7l-3.2-12.3h-4.5Zm43.95,24.2v-24.2h-4.4v24.2h4.4Zm-2.2-33.752a2.681,2.681,0,0,0-2.75,2.75A2.725,2.725,0,1,0,1328.04,754.764Zm10.5,3.75v5.8h-3.75v3.35h3.75v13.2c0,2.85.45,5,1.7,6.3a6.1,6.1,0,0,0,4.75,1.85,10.771,10.771,0,0,0,3.9-.6l-0.2-3.3a9.788,9.788,0,0,1-2.55.3c-2.45,0-3.3-1.7-3.3-4.7V767.664h6.3v-3.35h-6.3v-6.95Zm15.55,30h4.4v-14.6a5.327,5.327,0,0,1,.3-2.1,6.321,6.321,0,0,1,5.9-4.4c4.15,0,5.6,3.3,5.6,7.2v13.9h4.4v-14.4c0-8.351-5.2-10.351-8.45-10.351a9.056,9.056,0,0,0-4.5,1.25,8.165,8.165,0,0,0-3.15,3.1h-0.1v-15.1h-4.4v35.5Zm42.6,0v-14.4c0-5.6-.1-9.651-0.35-13.9l0.15-.05a107.078,107.078,0,0,0,6.3,11.251l10.7,17.1h4.4v-33.7h-4.1v14.1c0,5.251.1,9.351,0.5,13.851l-0.1.05a95.4,95.4,0,0,0-6.05-10.95l-10.8-17.051h-4.75v33.7h4.1Zm38.9-24.752c-6.7,0-12,4.75-12,12.851,0,7.65,5.05,12.451,11.6,12.451,5.85,0,12.05-3.9,12.05-12.851C1447.24,768.814,1442.54,763.764,1435.59,763.764Zm-0.1,3.3c5.2,0,7.25,5.2,7.25,9.3,0,5.45-3.15,9.4-7.35,9.4-4.3,0-7.35-4-7.35-9.3C1428.04,771.865,1430.29,767.064,1435.49,767.064Zm33.8-14.051v14.451h-0.1c-1.1-1.95-3.6-3.7-7.3-3.7-5.9,0-10.9,4.95-10.85,13,0,7.35,4.5,12.3,10.35,12.3a8.95,8.95,0,0,0,8.25-4.751h0.1l0.2,4.2h3.95c-0.15-1.65-.2-4.1-0.2-6.251V753.013h-4.4Zm0,25.352a7.643,7.643,0,0,1-.2,1.9,6.614,6.614,0,0,1-6.45,5.25c-4.75,0-7.15-4.05-7.15-8.95,0-5.35,2.7-9.351,7.25-9.351a6.471,6.471,0,0,1,6.35,5.1,7.767,7.767,0,0,1,.2,1.85v4.2Zm31.15-1.15a16.6,16.6,0,0,0,.15-2.05c0-4.45-2.1-11.4-10-11.4-7.05,0-11.35,5.75-11.35,13.051s4.45,12.2,11.9,12.2a19.6,19.6,0,0,0,8.05-1.5l-0.75-3.151a15.911,15.911,0,0,1-6.7,1.25c-4.4,0-8.2-2.45-8.3-8.4h17Zm-16.95-3.15c0.35-3.05,2.3-7.151,6.75-7.151,4.95,0,6.15,4.351,6.1,7.151h-12.85Zm23.85,15a3.156,3.156,0,1,0-2.95-3.151A2.928,2.928,0,0,0,1507.34,789.066Zm3,9.9a11.167,11.167,0,0,0,7.5-2.75c2.15-2.2,2.9-5.25,2.9-9.951V764.314h-4.4v20.251c0,5.8-.45,7.7-1.65,9.1a7.121,7.121,0,0,1-4.8,1.85Zm8.25-44.2a2.693,2.693,0,0,0-2.8,2.75,2.627,2.627,0,0,0,2.7,2.7A2.726,2.726,0,0,0,1518.59,754.764Zm7.65,32.6a13.8,13.8,0,0,0,6.8,1.65c5.75,0,9.05-3,9.05-7.251,0-3.6-2.15-5.7-6.35-7.3-3.15-1.2-4.6-2.1-4.6-4.1,0-1.8,1.45-3.3,4.05-3.3a9.418,9.418,0,0,1,4.95,1.4l1.1-3.2a12.079,12.079,0,0,0-5.95-1.5c-5.2,0-8.35,3.2-8.35,7.1,0,2.9,2.05,5.3,6.4,6.85,3.25,1.2,4.5,2.35,4.5,4.45,0,2-1.5,3.6-4.7,3.6a11.531,11.531,0,0,1-5.8-1.75Z" transform="translate(-347.625 -553.219)"/>
</svg>
